<?xml version="1.0" encoding="UTF-8" standalone="no"?>
<!-- Created by Makercase v3 -->

<svg
   width="269.00mm"
   height="125.00mm"
   viewBox="-2 -2 269.00 125.00"
   version="1.1"
   id="svg10"
   sodipodi:docname="page-turner2.svg.2025_12_12_14_40_51.1.svg"
   inkscape:version="1.4.2 (f4327f4, 2025-05-13)"
   xmlns:inkscape="http://www.inkscape.org/namespaces/inkscape"
   xmlns:sodipodi="http://sodipodi.sourceforge.net/DTD/sodipodi-0.dtd"
   xmlns="http://www.w3.org/2000/svg"
   xmlns:svg="http://www.w3.org/2000/svg">
  <defs
     id="defs10">
    <inkscape:path-effect
       effect="fillet_chamfer"
       id="path-effect15"
       is_visible="true"
       lpeversion="1"
       nodesatellites_param="F,0,0,1,0,1.5875,0,1 @ F,0,0,1,0,1.5875,0,1 @ F,0,0,1,0,1.5875,0,1 @ F,0,0,1,0,1.5875,0,1"
       radius="6"
       unit="px"
       method="auto"
       mode="F"
       chamfer_steps="1"
       flexible="false"
       use_knot_distance="true"
       apply_no_radius="true"
       apply_with_radius="true"
       only_selected="false"
       hide_knots="false" />
  </defs>
  <sodipodi:namedview
     id="namedview10"
     pagecolor="#ffffff"
     bordercolor="#000000"
     borderopacity="0.25"
     inkscape:showpageshadow="2"
     inkscape:pageopacity="0.0"
     inkscape:pagecheckerboard="0"
     inkscape:deskcolor="#d1d1d1"
     inkscape:document-units="mm"
     showguides="true"
     inkscape:zoom="0.854075"
     inkscape:cx="595.9664"
     inkscape:cy="514.59181"
     inkscape:window-width="1920"
     inkscape:window-height="1009"
     inkscape:window-x="-8"
     inkscape:window-y="-8"
     inkscape:window-maximized="1"
     inkscape:current-layer="svg10">
    <sodipodi:guide
       position="200,73.999999"
       orientation="1,0"
       id="guide11"
       inkscape:locked="false" />
    <sodipodi:guide
       position="135.95,44"
       orientation="0,-1"
       id="guide12"
       inkscape:locked="false" />
  </sodipodi:namedview>
  <g
     transform="matrix(1, 0, 0, -1, 67, 96.5)"
     id="g2">
    <path
       stroke="#ff0000"
       stroke-width="0.1"
       fill="none"
       d="M-55.000 -12.500 L-55.000 -21.500 -37.500 -21.500 -37.500 -12.500 -12.500 -12.500 -12.500 -21.500 12.500 -21.500 12.500 -12.500 37.500 -12.500 37.500 -21.500 55.000 -21.500 55.000 -12.500 64.000 -12.500 64.000 12.500 55.000 12.500 -55.000 12.500 -64.000 12.500 -64.000 -12.500 Z"
       id="path1" />
    <path
       d="M -12.321 -3.768 L -13.257 -3.768 L -13.257 3.768 L -8.673 3.768 L -8.673 2.964 L -12.321 2.964 L -12.321 0.456 L -8.925 0.456 L -8.925 -0.348 L -12.321 -0.348 L -12.321 -3.768 Z M -6.033 -3.768 L -6.969 -3.768 L -6.969 1.980 L -6.033 1.980 L -6.033 -3.768 Z M -6.033 -1.176 L -6.321 -1.176 Q -6.321 -0.084 -6.111 0.639 Q -5.901 1.362 -5.496 1.719 Q -5.091 2.076 -4.509 2.076 L -4.509 2.076 Q -4.317 2.076 -4.158 2.049 Q -3.999 2.022 -3.837 1.968 L -3.837 1.968 L -3.897 1.044 Q -4.065 1.098 -4.263 1.137 Q -4.461 1.176 -4.617 1.176 L -4.617 1.176 Q -5.127 1.176 -5.439 0.885 Q -5.751 0.594 -5.892 0.066 Q -6.033 -0.462 -6.033 -1.176 L -6.033 -1.176 Z M -0.555 -3.912 L -0.555 -3.912 Q -1.329 -3.912 -1.932 -3.570 Q -2.535 -3.228 -2.883 -2.556 Q -3.231 -1.884 -3.231 -0.900 L -3.231 -0.900 Q -3.231 0.090 -2.883 0.759 Q -2.535 1.428 -1.932 1.770 Q -1.329 2.112 -0.555 2.112 L -0.555 2.112 Q 0.213 2.112 0.816 1.770 Q 1.419 1.428 1.764 0.759 Q 2.109 0.090 2.109 -0.900 L 2.109 -0.900 Q 2.109 -1.884 1.764 -2.556 Q 1.419 -3.228 0.816 -3.570 Q 0.213 -3.912 -0.555 -3.912 Z M -0.579 -3.096 L -0.579 -3.096 Q -0.021 -3.096 0.369 -2.829 Q 0.759 -2.562 0.960 -2.070 Q 1.161 -1.578 1.161 -0.900 L 1.161 -0.900 Q 1.161 0.126 0.735 0.717 Q 0.309 1.308 -0.531 1.308 L -0.531 1.308 Q -1.095 1.308 -1.482 1.041 Q -1.869 0.774 -2.070 0.279 Q -2.271 -0.216 -2.271 -0.900 L -2.271 -0.900 Q -2.271 -1.914 -1.842 -2.505 Q -1.413 -3.096 -0.579 -3.096 Z M 8.931 -3.768 L 8.007 -3.768 L 8.007 -0.396 Q 8.007 0.426 7.614 0.855 Q 7.221 1.284 6.543 1.284 L 6.543 1.284 Q 6.027 1.284 5.649 1.002 Q 5.271 0.720 5.067 0.195 Q 4.863 -0.330 4.863 -1.056 L 4.863 -1.056 L 4.503 -1.056 Q 4.503 -0.054 4.767 0.654 Q 5.031 1.362 5.538 1.737 Q 6.045 2.112 6.771 2.112 L 6.771 2.112 Q 7.449 2.112 7.932 1.809 Q 8.415 1.506 8.673 0.942 Q 8.931 0.378 8.931 -0.396 L 8.931 -0.396 L 8.931 -3.768 Z M 4.863 -3.768 L 3.927 -3.768 L 3.927 1.968 L 4.731 1.968 L 4.863 0.648 L 4.863 -3.768 Z M 12.933 -3.912 L 12.933 -3.912 Q 12.465 -3.912 12.093 -3.732 Q 11.721 -3.552 11.505 -3.192 Q 11.289 -2.832 11.289 -2.292 L 11.289 -2.292 L 11.289 3.564 L 12.213 3.564 L 12.213 -2.268 Q 12.213 -3.156 13.041 -3.156 L 13.041 -3.156 Q 13.287 -3.156 13.518 -3.102 Q 13.749 -3.048 14.037 -2.940 L 14.037 -2.940 L 14.169 -3.612 Q 13.863 -3.744 13.560 -3.828 Q 13.257 -3.912 12.933 -3.912 Z M 14.025 1.320 L 10.365 1.320 L 10.365 1.968 L 14.025 1.968 L 14.025 1.320 Z"
       stroke="none"
       stroke-width="0.5"
       fill="#000000"
       id="path2" />
  </g>
  <g
     transform="matrix(1, 0, 0, -1, 67, 59.5)"
     id="g4">
    <path
       stroke="#ff0000"
       stroke-width="0.1"
       fill="none"
       d="M-55.000 -12.500 L-55.000 -21.500 -37.500 -21.500 -37.500 -12.500 -12.500 -12.500 -12.500 -21.500 12.500 -21.500 12.500 -12.500 37.500 -12.500 37.500 -21.500 55.000 -21.500 55.000 -12.500 64.000 -12.500 64.000 12.500 55.000 12.500 -55.000 12.500 -64.000 12.500 -64.000 -12.500 Z"
       id="path3" />
    <path
       d="M -9.477 -4.092 L -12.297 -4.092 L -12.297 3.444 L -9.477 3.444 Q -8.649 3.444 -8.103 3.171 Q -7.557 2.898 -7.287 2.451 Q -7.017 2.004 -7.017 1.476 L -7.017 1.476 Q -7.017 0.828 -7.374 0.351 Q -7.731 -0.126 -8.445 -0.300 L -8.445 -0.300 Q -7.983 -0.372 -7.632 -0.627 Q -7.281 -0.882 -7.083 -1.251 Q -6.885 -1.620 -6.885 -2.040 L -6.885 -2.040 Q -6.885 -2.424 -7.014 -2.790 Q -7.143 -3.156 -7.443 -3.450 Q -7.743 -3.744 -8.241 -3.918 Q -8.739 -4.092 -9.477 -4.092 L -9.477 -4.092 Z M -11.361 -0.732 L -11.361 -3.276 L -9.489 -3.276 Q -8.631 -3.276 -8.256 -2.916 Q -7.881 -2.556 -7.881 -1.992 L -7.881 -1.992 Q -7.881 -1.422 -8.289 -1.077 Q -8.697 -0.732 -9.489 -0.732 L -9.489 -0.732 L -11.361 -0.732 Z M -9.501 2.640 L -11.361 2.640 L -11.361 0.072 L -9.513 0.072 Q -8.811 0.072 -8.394 0.417 Q -7.977 0.762 -7.977 1.392 L -7.977 1.392 Q -7.977 1.980 -8.382 2.310 Q -8.787 2.640 -9.501 2.640 L -9.501 2.640 Z M -0.471 -4.092 L -1.287 -4.092 L -1.407 -2.832 L -1.407 -0.372 Q -1.407 0.402 -1.737 0.741 Q -2.067 1.080 -2.727 1.080 L -2.727 1.080 Q -3.099 1.080 -3.402 0.972 Q -3.705 0.864 -3.882 0.639 Q -4.059 0.414 -4.059 0.060 L -4.059 0.060 L -5.103 0.060 Q -5.103 0.684 -4.797 1.065 Q -4.491 1.446 -3.954 1.617 Q -3.417 1.788 -2.727 1.788 L -2.727 1.788 Q -2.067 1.788 -1.557 1.566 Q -1.047 1.344 -0.759 0.861 Q -0.471 0.378 -0.471 -0.396 L -0.471 -0.396 L -0.471 -4.092 Z M -3.243 -4.236 L -3.243 -4.236 Q -3.951 -4.236 -4.413 -3.984 Q -4.875 -3.732 -5.103 -3.330 Q -5.331 -2.928 -5.331 -2.484 L -5.331 -2.484 Q -5.331 -1.902 -5.040 -1.536 Q -4.749 -1.170 -4.245 -0.999 Q -3.741 -0.828 -3.111 -0.828 L -3.111 -0.828 Q -2.661 -0.828 -2.208 -0.918 Q -1.755 -1.008 -1.323 -1.164 L -1.323 -1.164 L -1.323 -1.752 Q -1.683 -1.608 -2.136 -1.524 Q -2.589 -1.440 -2.967 -1.440 L -2.967 -1.440 Q -3.543 -1.440 -3.939 -1.677 Q -4.335 -1.914 -4.335 -2.484 L -4.335 -2.484 Q -4.335 -2.904 -4.032 -3.204 Q -3.729 -3.504 -3.063 -3.504 L -3.063 -3.504 Q -2.595 -3.504 -2.220 -3.285 Q -1.845 -3.066 -1.626 -2.736 Q -1.407 -2.406 -1.407 -2.076 L -1.407 -2.076 L -1.179 -2.076 Q -1.179 -2.652 -1.428 -3.144 Q -1.677 -3.636 -2.139 -3.936 Q -2.601 -4.236 -3.243 -4.236 Z M 3.783 -4.236 L 3.783 -4.236 Q 3.093 -4.236 2.496 -3.864 Q 1.899 -3.492 1.533 -2.814 Q 1.167 -2.136 1.167 -1.212 L 1.167 -1.212 Q 1.167 -0.264 1.533 0.408 Q 1.899 1.080 2.496 1.434 Q 3.093 1.788 3.783 1.788 L 3.783 1.788 Q 4.269 1.788 4.656 1.641 Q 5.043 1.494 5.331 1.236 Q 5.619 0.978 5.808 0.651 Q 5.997 0.324 6.087 -0.036 L 6.087 -0.036 L 5.127 -0.120 Q 4.977 0.378 4.626 0.669 Q 4.275 0.960 3.771 0.960 L 3.771 0.960 Q 3.345 0.960 2.970 0.717 Q 2.595 0.474 2.361 -0.009 Q 2.127 -0.492 2.127 -1.212 L 2.127 -1.212 Q 2.127 -1.878 2.340 -2.367 Q 2.553 -2.856 2.925 -3.126 Q 3.297 -3.396 3.771 -3.396 L 3.771 -3.396 Q 4.437 -3.396 4.782 -3.069 Q 5.127 -2.742 5.127 -2.160 L 5.127 -2.160 L 6.087 -2.160 Q 6.087 -2.760 5.805 -3.228 Q 5.523 -3.696 5.004 -3.966 Q 4.485 -4.236 3.783 -4.236 Z M 8.895 -4.092 L 7.959 -4.092 L 7.959 4.092 L 8.895 4.092 L 8.895 -4.092 Z M 8.751 -1.800 L 8.751 -0.804 L 11.679 1.644 L 12.987 1.644 L 8.751 -1.800 Z M 13.119 -4.092 L 11.967 -4.092 L 9.243 -0.468 L 10.191 -0.300 L 13.119 -4.092 Z"
       stroke="none"
       stroke-width="0.5"
       fill="#000000"
       id="path4" />
  </g>
  <g
     transform="matrix(1, 0, 0, -1, 42, 22.5)"
     id="g6">
    <path
       stroke="#ff0000"
       stroke-width="0.1"
       fill="none"
       d="M30.000 12.500 L-30.000 12.500 -30.000 -12.500 -39.000 -12.500 -39.000 -21.500 -30.000 -21.500 -12.500 -21.500 -12.500 -12.500 12.500 -12.500 12.500 -21.500 30.000 -21.500 39.000 -21.500 39.000 -12.500 30.000 -12.500 Z"
       id="path5" />
    <path
       d="M -8.985 3.402 L -8.049 3.402 L -8.049 -3.318 L -4.689 -3.318 L -4.689 -4.134 L -8.985 -4.134 L -8.985 3.402 Z M -1.383 -4.278 L -1.383 -4.278 Q -2.127 -4.278 -2.712 -3.897 Q -3.297 -3.516 -3.636 -2.838 Q -3.975 -2.160 -3.975 -1.278 L -3.975 -1.278 Q -3.975 -0.336 -3.639 0.342 Q -3.303 1.020 -2.718 1.383 Q -2.133 1.746 -1.383 1.746 L -1.383 1.746 Q -0.729 1.746 -0.267 1.482 Q 0.195 1.218 0.477 0.768 Q 0.759 0.318 0.870 -0.249 Q 0.981 -0.816 0.933 -1.422 L 0.933 -1.422 L -3.219 -1.422 L -3.219 -0.846 L 0.315 -0.846 L 0.039 -1.026 Q 0.057 -0.672 -0.000 -0.318 Q -0.057 0.036 -0.213 0.333 Q -0.369 0.630 -0.651 0.810 Q -0.933 0.990 -1.371 0.990 L -1.371 0.990 Q -1.923 0.990 -2.295 0.708 Q -2.667 0.426 -2.853 -0.033 Q -3.039 -0.492 -3.039 -1.026 L -3.039 -1.026 L -3.039 -1.410 Q -3.039 -2.010 -2.856 -2.484 Q -2.673 -2.958 -2.307 -3.234 Q -1.941 -3.510 -1.383 -3.510 L -1.383 -3.510 Q -0.825 -3.510 -0.465 -3.240 Q -0.105 -2.970 -0.027 -2.442 L -0.027 -2.442 L 0.945 -2.442 Q 0.855 -3.012 0.537 -3.423 Q 0.219 -3.834 -0.273 -4.056 Q -0.765 -4.278 -1.383 -4.278 Z M 4.035 -4.134 L 3.099 -4.134 L 3.099 2.490 Q 3.099 3.060 3.318 3.423 Q 3.537 3.786 3.906 3.960 Q 4.275 4.134 4.731 4.134 L 4.731 4.134 Q 4.977 4.134 5.232 4.098 Q 5.487 4.062 5.739 3.990 L 5.739 3.990 L 5.559 3.246 Q 5.379 3.318 5.202 3.354 Q 5.025 3.390 4.863 3.390 L 4.863 3.390 Q 4.671 3.390 4.479 3.318 Q 4.287 3.246 4.161 3.048 Q 4.035 2.850 4.035 2.478 L 4.035 2.478 L 4.035 -4.134 Z M 5.223 0.954 L 2.163 0.954 L 2.163 1.602 L 5.223 1.602 L 5.223 0.954 Z M 8.661 -4.278 L 8.661 -4.278 Q 8.193 -4.278 7.821 -4.098 Q 7.449 -3.918 7.233 -3.558 Q 7.017 -3.198 7.017 -2.658 L 7.017 -2.658 L 7.017 3.198 L 7.941 3.198 L 7.941 -2.634 Q 7.941 -3.522 8.769 -3.522 L 8.769 -3.522 Q 9.015 -3.522 9.246 -3.468 Q 9.477 -3.414 9.765 -3.306 L 9.765 -3.306 L 9.897 -3.978 Q 9.591 -4.110 9.288 -4.194 Q 8.985 -4.278 8.661 -4.278 Z M 9.753 0.954 L 6.093 0.954 L 6.093 1.602 L 9.753 1.602 L 9.753 0.954 Z"
       stroke="none"
       stroke-width="0.5"
       fill="#000000"
       id="path6" />
  </g>
  <g
     transform="matrix(1, 0, 0, -1, 123, 15.5)"
     id="g8">
    <path
       stroke="#ff0000"
       stroke-width="0.1"
       fill="none"
       d="M30.000 12.500 L-30.000 12.500 -30.000 -12.500 -39.000 -12.500 -39.000 -21.500 -30.000 -21.500 -12.500 -21.500 -12.500 -12.500 12.500 -12.500 12.500 -21.500 30.000 -21.500 39.000 -21.500 39.000 -12.500 30.000 -12.500 Z"
       id="path7" />
    <path
       d="M -12.579 -4.134 L -13.515 -4.134 L -13.515 3.402 L -10.887 3.402 Q -9.597 3.402 -8.934 2.787 Q -8.271 2.172 -8.271 1.170 L -8.271 1.170 Q -8.271 0.180 -8.934 -0.435 Q -9.597 -1.050 -10.887 -1.050 L -10.887 -1.050 L -12.579 -1.050 L -12.579 -4.134 Z M -8.079 -4.134 L -9.291 -4.134 L -11.451 -0.714 L -10.431 -0.714 L -8.079 -4.134 Z M -12.579 2.598 L -12.579 -0.390 L -10.959 -0.390 Q -10.113 -0.390 -9.672 0.027 Q -9.231 0.444 -9.231 1.110 L -9.231 1.110 Q -9.231 1.794 -9.654 2.196 Q -10.077 2.598 -10.887 2.598 L -10.887 2.598 L -12.579 2.598 Z M -5.637 2.958 L -5.637 2.958 Q -5.925 2.958 -6.093 3.123 Q -6.261 3.288 -6.261 3.558 L -6.261 3.558 Q -6.261 3.822 -6.093 3.978 Q -5.925 4.134 -5.637 4.134 L -5.637 4.134 Q -5.349 4.134 -5.181 3.978 Q -5.013 3.822 -5.013 3.558 L -5.013 3.558 Q -5.013 3.288 -5.181 3.123 Q -5.349 2.958 -5.637 2.958 Z M -5.169 -4.134 L -6.105 -4.134 L -6.105 1.614 L -5.169 1.614 L -5.169 -4.134 Z M -0.561 -7.086 L -0.561 -7.086 Q -1.443 -7.086 -2.091 -6.837 Q -2.739 -6.588 -3.096 -6.171 Q -3.453 -5.754 -3.453 -5.250 L -3.453 -5.250 Q -3.453 -4.584 -2.964 -4.233 Q -2.475 -3.882 -1.701 -3.882 L -1.701 -3.882 L -1.185 -4.206 Q -1.833 -4.206 -2.187 -4.476 Q -2.541 -4.746 -2.541 -5.214 L -2.541 -5.214 Q -2.541 -5.682 -2.037 -6.006 Q -1.533 -6.330 -0.561 -6.330 L -0.561 -6.330 Q 0.159 -6.330 0.702 -6.123 Q 1.245 -5.916 1.548 -5.583 Q 1.851 -5.250 1.851 -4.866 L 1.851 -4.866 Q 1.851 -4.596 1.653 -4.401 Q 1.455 -4.206 1.047 -4.206 L 1.047 -4.206 L -1.185 -4.206 Q -1.767 -4.206 -2.190 -4.029 Q -2.613 -3.852 -2.841 -3.564 Q -3.069 -3.276 -3.069 -2.934 L -3.069 -2.934 Q -3.069 -2.574 -2.865 -2.322 Q -2.661 -2.070 -2.334 -1.938 Q -2.007 -1.806 -1.629 -1.806 L -1.629 -1.806 L -1.449 -2.154 Q -1.629 -2.154 -1.812 -2.235 Q -1.995 -2.316 -2.118 -2.475 Q -2.241 -2.634 -2.241 -2.874 L -2.241 -2.874 Q -2.241 -3.150 -2.013 -3.336 Q -1.785 -3.522 -1.185 -3.522 L -1.185 -3.522 L 1.047 -3.522 Q 1.857 -3.522 2.322 -3.864 Q 2.787 -4.206 2.787 -4.818 L 2.787 -4.818 Q 2.787 -5.382 2.385 -5.901 Q 1.983 -6.420 1.233 -6.753 Q 0.483 -7.086 -0.561 -7.086 Z M -0.393 -2.454 L -0.393 -2.454 Q -1.053 -2.454 -1.584 -2.190 Q -2.115 -1.926 -2.424 -1.452 Q -2.733 -0.978 -2.733 -0.354 L -2.733 -0.354 Q -2.733 0.276 -2.424 0.750 Q -2.115 1.224 -1.584 1.485 Q -1.053 1.746 -0.393 1.746 L -0.393 1.746 Q 0.249 1.746 0.774 1.485 Q 1.299 1.224 1.611 0.750 Q 1.923 0.276 1.923 -0.354 L 1.923 -0.354 Q 1.923 -0.978 1.611 -1.452 Q 1.299 -1.926 0.774 -2.190 Q 0.249 -2.454 -0.393 -2.454 Z M -0.393 -1.782 L -0.393 -1.782 Q 0.267 -1.782 0.633 -1.374 Q 0.999 -0.966 0.999 -0.354 L 0.999 -0.354 Q 0.999 0.276 0.633 0.669 Q 0.267 1.062 -0.393 1.062 L -0.393 1.062 Q -1.047 1.062 -1.422 0.669 Q -1.797 0.276 -1.797 -0.354 L -1.797 -0.354 Q -1.797 -0.966 -1.422 -1.374 Q -1.047 -1.782 -0.393 -1.782 Z M 1.491 0.834 L 1.491 0.834 L 1.047 1.014 Q 1.047 1.518 1.245 1.899 Q 1.443 2.280 1.809 2.493 Q 2.175 2.706 2.679 2.706 L 2.679 2.706 L 2.607 1.782 Q 2.067 1.782 1.779 1.551 Q 1.491 1.320 1.491 0.834 Z M 9.189 -4.134 L 8.265 -4.134 L 8.265 -0.762 Q 8.265 0.060 7.872 0.489 Q 7.479 0.918 6.801 0.918 L 6.801 0.918 Q 6.285 0.918 5.907 0.636 Q 5.529 0.354 5.325 -0.171 Q 5.121 -0.696 5.121 -1.422 L 5.121 -1.422 L 4.761 -1.422 Q 4.761 -0.420 5.025 0.288 Q 5.289 0.996 5.796 1.371 Q 6.303 1.746 7.029 1.746 L 7.029 1.746 Q 7.707 1.746 8.190 1.443 Q 8.673 1.140 8.931 0.576 Q 9.189 0.012 9.189 -0.762 L 9.189 -0.762 L 9.189 -4.134 Z M 5.121 -4.134 L 4.185 -4.134 L 4.185 4.050 L 5.121 4.050 L 5.121 -4.134 Z M 13.191 -4.278 L 13.191 -4.278 Q 12.723 -4.278 12.351 -4.098 Q 11.979 -3.918 11.763 -3.558 Q 11.547 -3.198 11.547 -2.658 L 11.547 -2.658 L 11.547 3.198 L 12.471 3.198 L 12.471 -2.634 Q 12.471 -3.522 13.299 -3.522 L 13.299 -3.522 Q 13.545 -3.522 13.776 -3.468 Q 14.007 -3.414 14.295 -3.306 L 14.295 -3.306 L 14.427 -3.978 Q 14.121 -4.110 13.818 -4.194 Q 13.515 -4.278 13.191 -4.278 Z M 14.283 0.954 L 10.623 0.954 L 10.623 1.602 L 14.283 1.602 L 14.283 0.954 Z"
       stroke="none"
       stroke-width="0.5"
       fill="#000000"
       id="path8" />
  </g>
  <g
     transform="matrix(1, 0, 0, -1, 198, 79)"
     id="g10">
    <path
       stroke="#ff0000"
       stroke-width="0.1"
       fill="none"
       d="m 37.5,39 h -25 v -9 h -25 v 9 h -25 V 30 H -55 V 12.5 h -9 v -25 h 9 V -30 h 17.5 v -9 h 25 v 9 h 25 v -9 h 25 v 9 H 55 v 17.5 h 9 v 25 H 55 V 30 H 37.5 Z"
       id="path9"
       sodipodi:insensitive="true" />
    <path
       d="m -16.38,-3.768 h -2.82 v 7.536 h 2.82 q 0.828,0 1.374,-0.273 0.546,-0.273 0.816,-0.72 0.27,-0.447 0.27,-0.975 v 0 q 0,-0.648 -0.357,-1.125 -0.357,-0.477 -1.071,-0.651 v 0 q 0.462,-0.072 0.813,-0.327 0.351,-0.255 0.549,-0.624 0.198,-0.369 0.198,-0.789 v 0 q 0,-0.384 -0.129,-0.75 -0.129,-0.366 -0.429,-0.66 -0.3,-0.294 -0.798,-0.468 -0.498,-0.174 -1.236,-0.174 z m -1.884,3.36 v -2.544 h 1.872 q 0.858,0 1.233,0.36 0.375,0.36 0.375,0.924 v 0 q 0,0.57 -0.408,0.915 -0.408,0.345 -1.2,0.345 v 0 z m 1.86,3.372 h -1.86 V 0.396 h 1.848 q 0.702,0 1.119,0.345 0.417,0.345 0.417,0.975 v 0 q 0,0.588 -0.405,0.918 -0.405,0.33 -1.119,0.33 z m 6.738,-6.876 v 0 q -0.774,0 -1.377,0.342 -0.603,0.342 -0.951,1.014 -0.348,0.672 -0.348,1.656 v 0 q 0,0.99 0.348,1.659 0.348,0.669 0.951,1.011 0.603,0.342 1.377,0.342 v 0 q 0.768,0 1.371,-0.342 0.603,-0.342 0.948,-1.011 0.345,-0.669 0.345,-1.659 v 0 q 0,-0.984 -0.345,-1.656 -0.345,-0.672 -0.948,-1.014 -0.603,-0.342 -1.371,-0.342 z m -0.024,0.816 v 0 q 0.558,0 0.948,0.267 0.39,0.267 0.591,0.759 0.201,0.492 0.201,1.17 v 0 q 0,1.026 -0.426,1.617 -0.426,0.591 -1.266,0.591 v 0 q -0.564,0 -0.951,-0.267 -0.387,-0.267 -0.588,-0.762 -0.201,-0.495 -0.201,-1.179 v 0 q 0,-1.014 0.429,-1.605 0.429,-0.591 1.263,-0.591 z m 6.27,-0.816 v 0 q -0.468,0 -0.84,0.18 -0.372,0.18 -0.588,0.54 -0.216,0.36 -0.216,0.9 v 0 5.856 h 0.924 v -5.832 q 0,-0.888 0.828,-0.888 v 0 q 0.246,0 0.477,0.054 0.231,0.054 0.519,0.162 v 0 l 0.132,-0.672 Q -2.49,-3.744 -2.793,-3.828 -3.096,-3.912 -3.42,-3.912 Z m 1.092,5.232 h -3.66 v 0.648 h 3.66 z m 3.42,-5.232 v 0 q -0.468,0 -0.84,0.18 -0.372,0.18 -0.588,0.54 -0.216,0.36 -0.216,0.9 v 0 5.856 h 0.924 v -5.832 q 0,-0.888 0.828,-0.888 v 0 q 0.246,0 0.477,0.054 0.231,0.054 0.519,0.162 v 0 L 2.328,-3.612 Q 2.022,-3.744 1.719,-3.828 1.416,-3.912 1.092,-3.912 Z M 2.184,1.32 h -3.66 v 0.648 h 3.66 z m 3.732,-5.232 v 0 q -0.774,0 -1.377,0.342 Q 3.936,-3.228 3.588,-2.556 3.24,-1.884 3.24,-0.9 v 0 q 0,0.99 0.348,1.659 0.348,0.669 0.951,1.011 0.603,0.342 1.377,0.342 v 0 Q 6.684,2.112 7.287,1.77 7.89,1.428 8.235,0.759 8.58,0.09 8.58,-0.9 v 0 Q 8.58,-1.884 8.235,-2.556 7.89,-3.228 7.287,-3.57 6.684,-3.912 5.916,-3.912 Z m -0.024,0.816 v 0 q 0.558,0 0.948,0.267 0.39,0.267 0.591,0.759 0.201,0.492 0.201,1.17 v 0 q 0,1.026 -0.426,1.617 Q 6.78,1.308 5.94,1.308 v 0 Q 5.376,1.308 4.989,1.041 4.602,0.774 4.401,0.279 4.2,-0.216 4.2,-0.9 v 0 q 0,-1.014 0.429,-1.605 0.429,-0.591 1.263,-0.591 z m 13.506,-0.672 h -0.936 v 3.372 q 0,0.822 -0.393,1.251 -0.393,0.429 -1.059,0.429 v 0 q -0.78,0 -1.194,-0.603 -0.414,-0.603 -0.414,-1.665 v 0 H 14.97 q 0,0.774 0.153,1.356 0.153,0.582 0.447,0.969 0.294,0.387 0.714,0.579 0.42,0.192 0.954,0.192 v 0 q 0.678,0 1.161,-0.303 0.483,-0.303 0.741,-0.867 0.258,-0.564 0.258,-1.338 v 0 z m -8.064,0 h -0.936 v 5.736 h 0.804 L 11.31,0.816 q 0.27,0.624 0.759,0.96 0.489,0.336 1.173,0.336 v 0 q 0.678,0 1.161,-0.303 0.483,-0.303 0.741,-0.867 0.258,-0.564 0.258,-1.338 v 0 -3.372 h -0.924 v 3.372 q 0,0.822 -0.393,1.251 -0.393,0.429 -1.071,0.429 v 0 Q 12.498,1.284 12.12,1.002 11.742,0.72 11.538,0.195 11.334,-0.33 11.334,-1.056 v 0 z"
       stroke="none"
       stroke-width="0.5"
       fill="#000000"
       id="path10"
       sodipodi:insensitive="true"
       style="display:none" />
  </g>
  <path
     id="path14"
     style="fill:none;fill-rule:evenodd;stroke:#00ff00;stroke-width:0.1;stroke-linecap:round;stroke-linejoin:round;paint-order:fill markers stroke;stroke-dasharray:none"
     d="M 162.88638,79 A 6.1363883,6.1363883 0 0 1 156.74999,85.136388 6.1363883,6.1363883 0 0 1 150.61361,79 6.1363883,6.1363883 0 0 1 156.74999,72.863612 6.1363883,6.1363883 0 0 1 162.88638,79 Z" />
  <path
     id="path11"
     style="fill:none;fill-rule:evenodd;stroke:#00ff00;stroke-width:0.1;stroke-linecap:round;stroke-linejoin:round;paint-order:fill markers stroke;stroke-dasharray:none"
     d="M 245.38638,79 A 6.1363883,6.1363883 0 0 1 239.24999,85.136388 6.1363883,6.1363883 0 0 1 233.11361,79 6.1363883,6.1363883 0 0 1 239.24999,72.863612 6.1363883,6.1363883 0 0 1 245.38638,79 Z" />
  <rect
     style="fill:none;fill-rule:evenodd;stroke:#000000;stroke-width:0.0769012;stroke-linecap:round;stroke-linejoin:round;paint-order:fill markers stroke"
     id="rect14"
     width="24.9231"
     height="49.9231"
     x="-296.34836"
     y="-56.891235"
     transform="scale(-1)" />
  <path
     style="baseline-shift:baseline;display:inline;overflow:visible;fill:#00ff00;fill-rule:evenodd;stroke-linecap:round;stroke-linejoin:round;paint-order:fill markers stroke;enable-background:accumulate;stop-color:#000000;stop-opacity:1;opacity:1;stroke-width:0.1;stroke-dasharray:none"
     d="m 71.197266,64.554687 c -0.906418,0 -1.642578,0.736161 -1.642579,1.642579 v 4.214843 c 0,0.906418 0.736161,1.642578 1.642579,1.642578 h 6.714843 c 0.906418,0 1.642578,-0.73616 1.642578,-1.642578 v -4.214843 c 0,-0.906418 -0.73616,-1.642579 -1.642578,-1.642579 z m 0,0.109375 h 6.714843 c 0.847087,0 1.533203,0.686117 1.533203,1.533204 v 4.214843 c 0,0.847087 -0.686116,1.533203 -1.533203,1.533203 h -6.714843 c -0.847087,0 -1.533204,-0.686116 -1.533204,-1.533203 v -4.214843 c 0,-0.847087 0.686117,-1.533204 1.533204,-1.533204 z"
     id="rect15" />
  <path
     id="path15"
     style="fill:none;fill-rule:evenodd;stroke:#00ff00;stroke-width:0.0646581;stroke-linecap:round;stroke-linejoin:round;stroke-dasharray:none;paint-order:fill markers stroke"
     d="m 243.21766,56.929687 a 3.9676731,3.9676731 0 0 1 -3.96766,3.967673 3.9676731,3.9676731 0 0 1 -3.96767,-3.967673 3.9676731,3.9676731 0 0 1 3.96767,-3.967673 3.9676731,3.9676731 0 0 1 3.96766,3.967673 z" />
  <text
     xml:space="preserve"
     style="font-weight:bold;font-size:3.52778px;line-height:1;font-family:Serif;-inkscape-font-specification:'Serif Bold';text-align:center;letter-spacing:0.529167px;word-spacing:0px;writing-mode:lr-tb;direction:ltr;text-anchor:middle;fill:#0000ff;fill-rule:evenodd;stroke:#00ff00;stroke-width:0.1;stroke-linecap:round;stroke-linejoin:round;stroke-dasharray:none;paint-order:fill markers stroke"
     x="166.45264"
     y="60.395214"
     id="text15"><tspan
       sodipodi:role="line"
       id="tspan15"
       style="font-style:normal;font-variant:normal;font-weight:bold;font-stretch:normal;font-size:3.52778px;font-family:'Atkinson Hyperlegible';-inkscape-font-specification:'Atkinson Hyperlegible Bold';letter-spacing:0.529167px;fill:#0000ff;stroke-width:0.1"
       x="166.45264"
       y="60.395214">Page Turner</tspan><tspan
       sodipodi:role="line"
       style="font-style:normal;font-variant:normal;font-weight:bold;font-stretch:normal;font-size:3.52778px;font-family:'Atkinson Hyperlegible';-inkscape-font-specification:'Atkinson Hyperlegible Bold';letter-spacing:0.529167px;fill:#0000ff;stroke-width:0.1"
       x="166.71722"
       y="63.989128"
       id="tspan1">12/12/2025</tspan></text>
  <text
     xml:space="preserve"
     style="font-weight:bold;font-size:4.23333px;line-height:1;font-family:Serif;-inkscape-font-specification:'Serif Bold';text-align:center;letter-spacing:0.529167px;word-spacing:0px;writing-mode:lr-tb;direction:ltr;text-anchor:middle;fill:#0000ff;fill-rule:evenodd;stroke:#00ff00;stroke-width:0.1;stroke-linecap:round;stroke-linejoin:round;stroke-dasharray:none;paint-order:fill markers stroke"
     x="166.45264"
     y="56.403278"
     id="text3"><tspan
       sodipodi:role="line"
       style="font-style:normal;font-variant:normal;font-weight:bold;font-stretch:normal;font-family:'Atkinson Hyperlegible';-inkscape-font-specification:'Atkinson Hyperlegible Bold';letter-spacing:0.529167px;fill:#0000ff;stroke-width:0.1"
       x="166.71722"
       y="56.403278"
       id="tspan3">Hemílio Araújo</tspan></text>
</svg>
